<svg width="100" height="100" viewBox="0 0 100 100" fill="none" xmlns="http://www.w3.org/2000/svg">
<path d="M50 90C45.2593 90 40.7778 89.2222 36.5556 87.6667C32.3333 86.1111 28.5185 83.963 25.1111 81.2222L16.3333 90L10 83.6667L18.7778 74.8889C16.037 71.4815 13.8889 67.6474 12.3333 63.3867C10.7778 59.1289 10 54.6667 10 50C10 38.8889 13.9081 29.4444 21.7244 21.6667C29.5378 13.8889 38.963 10 50 10H90V50C90 61.037 86.1111 70.4637 78.3333 78.28C70.5556 86.0933 61.1111 90 50 90ZM44.1111 71.6667L67.1111 51.1111C67.8519 50.4444 68.0741 49.6474 67.7778 48.72C67.4815 47.7956 66.8148 47.2593 65.7778 47.1111L47.7778 45.3333L58.5556 30.5556C58.8519 30.1852 58.9807 29.7956 58.9422 29.3867C58.9067 28.9807 58.7407 28.5926 58.4444 28.2222C58.0741 27.8519 57.6489 27.6667 57.1689 27.6667C56.6859 27.6667 56.2593 27.8519 55.8889 28.2222L33 48.7778C32.2593 49.4444 32.037 50.24 32.3333 51.1644C32.6296 52.0919 33.2963 52.6296 34.3333 52.7778L52.3333 54.5556L41.4444 69.3333C41.2222 69.7037 41.1111 70.0933 41.1111 70.5022C41.1111 70.9082 41.2963 71.2963 41.6667 71.6667C42.037 72.037 42.4444 72.2222 42.8889 72.2222C43.3333 72.2222 43.7407 72.037 44.1111 71.6667Z" fill="#40A3C0"/>
</svg>
