<svg width="16" height="17" viewBox="0 0 16 17" fill="none" xmlns="http://www.w3.org/2000/svg">
<path d="M12.2716 3.59518C12.0908 3.59518 11.914 3.6488 11.7636 3.74926C11.6133 3.84972 11.4961 3.99252 11.4269 4.15958C11.3577 4.32664 11.3396 4.51047 11.3749 4.68783C11.4102 4.86519 11.4972 5.0281 11.6251 5.15596C11.753 5.28382 11.9159 5.3709 12.0932 5.40618C12.2706 5.44145 12.4544 5.42335 12.6215 5.35415C12.7886 5.28495 12.9313 5.16776 13.0318 5.01741C13.1323 4.86706 13.1859 4.69029 13.1859 4.50946C13.1859 4.26698 13.0896 4.03443 12.9181 3.86296C12.7467 3.6915 12.5141 3.59518 12.2716 3.59518ZM15.7764 5.43898C15.7616 4.80683 15.6432 4.18138 15.4259 3.58756C15.2321 3.07946 14.9307 2.61939 14.5421 2.23898C14.1648 1.84845 13.7037 1.54884 13.1935 1.36279C12.6013 1.13892 11.9751 1.01781 11.3421 1.0047C10.5345 0.958984 10.2754 0.958984 8.20303 0.958984C6.13065 0.958984 5.8716 0.958984 5.06398 1.0047C4.43096 1.01781 3.80482 1.13892 3.21256 1.36279C2.70336 1.55072 2.2426 1.85008 1.86398 2.23898C1.47345 2.61626 1.17383 3.07741 0.987794 3.58756C0.763917 4.17982 0.642811 4.80596 0.629699 5.43898C0.583984 6.2466 0.583984 6.50565 0.583984 8.57803C0.583984 10.6504 0.583984 10.9095 0.629699 11.7171C0.642811 12.3501 0.763917 12.9763 0.987794 13.5685C1.17383 14.0787 1.47345 14.5398 1.86398 14.9171C2.2426 15.306 2.70336 15.6054 3.21256 15.7933C3.80482 16.0171 4.43096 16.1383 5.06398 16.1514C5.8716 16.1971 6.13065 16.1971 8.20303 16.1971C10.2754 16.1971 10.5345 16.1971 11.3421 16.1514C11.9751 16.1383 12.6013 16.0171 13.1935 15.7933C13.7037 15.6072 14.1648 15.3076 14.5421 14.9171C14.9323 14.5381 15.2341 14.0776 15.4259 13.5685C15.6432 12.9747 15.7616 12.3492 15.7764 11.7171C15.7764 10.9095 15.8221 10.6504 15.8221 8.57803C15.8221 6.50565 15.8221 6.2466 15.7764 5.43898ZM14.4049 11.6257C14.3994 12.1093 14.3118 12.5885 14.1459 13.0428C14.0242 13.3744 13.8289 13.674 13.5745 13.919C13.3273 14.1708 13.0283 14.3658 12.6983 14.4904C12.2439 14.6564 11.7648 14.7439 11.2811 14.7495C10.5192 14.7876 10.2373 14.7952 8.23351 14.7952C6.2297 14.7952 5.94779 14.7952 5.18589 14.7495C4.68371 14.7588 4.18367 14.6816 3.70779 14.5209C3.3922 14.3899 3.10693 14.1954 2.8697 13.9495C2.61681 13.7047 2.42386 13.4049 2.30589 13.0733C2.11988 12.6125 2.0167 12.1223 2.00113 11.6257C2.00113 10.8637 1.95541 10.5818 1.95541 8.57803C1.95541 6.57422 1.95541 6.29232 2.00113 5.53041C2.00454 5.03598 2.0948 4.54599 2.26779 4.08279C2.40193 3.7612 2.60781 3.47453 2.8697 3.2447C3.10117 2.98273 3.38725 2.77468 3.70779 2.63517C4.17221 2.46759 4.6617 2.38 5.15541 2.37613C5.91732 2.37613 6.19922 2.33041 8.20303 2.33041C10.2068 2.33041 10.4887 2.33041 11.2507 2.37613C11.7343 2.38167 12.2135 2.46927 12.6678 2.63517C13.014 2.76367 13.3248 2.97258 13.5745 3.2447C13.8241 3.47874 14.0193 3.76487 14.1459 4.08279C14.3153 4.54674 14.4029 5.03653 14.4049 5.53041C14.443 6.29232 14.4507 6.57422 14.4507 8.57803C14.4507 10.5818 14.443 10.8637 14.4049 11.6257ZM8.20303 4.66946C7.43032 4.67097 6.67538 4.90148 6.03362 5.33188C5.39187 5.76227 4.89208 6.37323 4.59742 7.08756C4.30276 7.80189 4.22644 8.58756 4.37811 9.34519C4.52978 10.1029 4.90264 10.7986 5.44957 11.3445C5.99649 11.8903 6.69294 12.2618 7.45093 12.412C8.2089 12.5623 8.99442 12.4844 9.70817 12.1883C10.4219 11.8923 11.0319 11.3913 11.461 10.7487C11.8902 10.1061 12.1192 9.35076 12.1192 8.57803C12.1202 8.06382 12.0196 7.5545 11.823 7.07933C11.6265 6.60417 11.338 6.17255 10.974 5.80931C10.61 5.44606 10.1778 5.15836 9.70231 4.96274C9.22673 4.76712 8.71724 4.66745 8.20303 4.66946ZM8.20303 11.1152C7.70123 11.1152 7.2107 10.9664 6.79347 10.6876C6.37624 10.4088 6.05105 10.0125 5.85902 9.54893C5.66699 9.08538 5.61675 8.57521 5.71464 8.08306C5.81253 7.5909 6.05418 7.13882 6.409 6.784C6.76382 6.42918 7.2159 6.18753 7.70806 6.08964C8.20022 5.99175 8.71038 6.04199 9.17393 6.23402C9.63755 6.42605 10.0338 6.75124 10.3126 7.16847C10.5914 7.5857 10.7402 8.07623 10.7402 8.57803C10.7402 8.91121 10.6746 9.24112 10.547 9.54893C10.4196 9.85681 10.2327 10.1364 9.99709 10.3721C9.76143 10.6077 9.48181 10.7946 9.17393 10.922C8.86612 11.0496 8.53621 11.1152 8.20303 11.1152Z" fill="white"/>
</svg>
