<svg width="59" height="59" viewBox="0 0 59 59" fill="none" xmlns="http://www.w3.org/2000/svg">
<path d="M54.2579 0H4.74213C2.124 0 0 2.124 0 4.74213V54.2579C0 56.876 2.124 59 4.74213 59H54.2579C56.876 59 59 56.876 59 54.2579V4.74213C59 2.124 56.876 0 54.2579 0ZM54.2579 54.28C21.2326 54.2726 4.72 54.2652 4.72 54.2579C4.72737 21.2326 4.73475 4.72 4.74213 4.72C37.7674 4.72737 54.28 4.73475 54.28 4.74213C54.2726 37.7674 54.2652 54.28 54.2579 54.28ZM8.74675 22.1176H17.5009V50.2754H8.74675V22.1176ZM13.1275 18.2679C15.9226 18.2679 18.2015 15.9964 18.2015 13.1939C18.2015 12.5275 18.0703 11.8677 17.8153 11.2521C17.5603 10.6365 17.1865 10.0772 16.7154 9.60601C16.2442 9.13485 15.6848 8.7611 15.0692 8.50611C14.4536 8.25112 13.7938 8.11988 13.1275 8.11988C12.4612 8.11988 11.8014 8.25112 11.1858 8.50611C10.5702 8.7611 10.0108 9.13485 9.53964 9.60601C9.06848 10.0772 8.69473 10.6365 8.43973 11.2521C8.18474 11.8677 8.0535 12.5275 8.0535 13.1939C8.04612 15.9964 10.3176 18.2679 13.1275 18.2679ZM31.7346 36.344C31.7346 32.6712 32.4352 29.1165 36.9856 29.1165C41.4696 29.1165 41.536 33.3129 41.536 36.58V50.2754H50.2827V34.8321C50.2827 27.2506 48.6455 21.417 39.7881 21.417C35.5327 21.417 32.6786 23.7549 31.506 25.9674H31.388V22.1176H22.9879V50.2754H31.7346V36.344Z" fill="white"/>
</svg>
