<svg width="96" height="103" viewBox="0 0 96 103" fill="none" xmlns="http://www.w3.org/2000/svg">
<path d="M74.6844 34.9H21.2733L19.4156 18.3H76.5844M48 80.55C44.6406 80.55 41.4188 79.2383 39.0433 76.9035C36.6679 74.5687 35.3333 71.4019 35.3333 68.1C35.3333 59.8 48 45.69 48 45.69C48 45.69 60.6667 59.8 60.6667 68.1C60.6667 71.4019 59.3321 74.5687 56.9567 76.9035C54.5812 79.2383 51.3594 80.55 48 80.55ZM10 10L18.4444 85.6545C18.9933 89.8045 22.54 93 26.8889 93H69.1111C73.3333 93 77.0067 89.8045 77.5556 85.6545L86 10H10Z" fill="#40A3C0"/>
</svg>
