<svg width="16" height="13" viewBox="0 0 16 13" fill="none" xmlns="http://www.w3.org/2000/svg">
<path d="M15.6209 1.6925C15.135 1.88779 14.6332 2.02611 14.1154 2.09121C14.1075 2.08307 14.0995 2.08307 14.0915 2.07494C14.7367 1.65995 15.1828 1.08223 15.4297 0.333621C15.4058 0.349895 15.3979 0.349896 15.3819 0.358032C14.7925 0.707921 14.1633 0.952031 13.4941 1.0985C13.4543 1.10663 13.4305 1.0985 13.4065 1.06595C12.6897 0.341759 11.8215 0.0162782 10.8178 0.122059C10.1488 0.195292 9.5673 0.455676 9.07341 0.927618C8.21317 1.74946 7.89457 2.76658 8.10964 3.95458C8.1176 4.00341 8.11759 4.01968 8.06184 4.01968C7.68747 3.99526 7.30513 3.95458 6.93872 3.88135C6.15813 3.73489 5.40941 3.48264 4.7005 3.12461C3.61722 2.58757 2.68528 1.85524 1.88875 0.927618C1.82503 0.854389 1.76132 0.781159 1.69759 0.699786C1.45864 1.07409 1.24357 1.71691 1.27543 2.40042C1.32322 3.48263 1.79317 4.32075 2.64545 4.9473C2.14364 4.93102 1.68165 4.7927 1.24356 4.54859C1.24356 5.31346 1.46661 5.99697 1.93655 6.58284C2.4065 7.17683 3.00389 7.543 3.74467 7.71388C3.72077 7.72201 3.70485 7.73014 3.68891 7.73014C3.26676 7.83593 2.83662 7.8522 2.4065 7.77897C2.34277 7.77083 2.34277 7.77083 2.36667 7.83593C2.46225 8.12072 2.58969 8.38114 2.75696 8.62519C3.25877 9.34131 3.92786 9.78064 4.77218 9.93525C4.92351 9.96784 5.08283 9.97592 5.25807 9.98409C3.88804 11.05 2.35871 11.4813 0.662109 11.3104C0.670075 11.3186 0.678033 11.3267 0.693963 11.3348C1.31525 11.7336 1.97637 12.0509 2.66935 12.2868C3.44198 12.5472 4.23056 12.6937 5.04301 12.7262C5.46517 12.7426 5.8953 12.7344 6.31745 12.6937C6.78741 12.6531 7.24938 12.5716 7.71137 12.4578C9.29648 12.0509 10.6506 11.2453 11.7816 10.041C12.7056 9.04834 13.3746 7.90102 13.8128 6.60724C14.0517 5.90746 14.2031 5.18326 14.2668 4.4428C14.2987 4.0685 14.3066 3.69419 14.2907 3.3199C14.2907 3.27108 14.3066 3.24667 14.3385 3.21412C14.904 2.78285 15.3899 2.27836 15.7882 1.68436C15.7961 1.66809 15.82 1.65181 15.82 1.61926C15.7484 1.64368 15.6846 1.66809 15.6209 1.6925Z" fill="white"/>
</svg>
