<svg width="82" height="82" viewBox="0 0 82 82" fill="none" xmlns="http://www.w3.org/2000/svg">
<path d="M10.41 1C7.91433 1 5.52085 1.99157 3.75613 3.75657C1.99141 5.52158 1 7.91544 1 10.4115V57.4692C1 59.9653 1.99141 62.3592 3.75613 64.1242C5.52085 65.8892 7.91433 66.8807 10.41 66.8807H36.1747C36.8898 64.5232 38.179 62.3726 39.9293 60.6221L48.61 51.9352C48.2476 51.51 48.049 50.9693 48.0501 50.4106V17.4702C48.0501 16.8462 48.298 16.2477 48.7391 15.8064C49.1803 15.3652 49.7787 15.1173 50.4026 15.1173C51.0265 15.1173 51.6249 15.3652 52.0661 15.8064C52.5073 16.2477 52.7551 16.8462 52.7551 17.4702V47.7942L62.6497 37.8979C63.9013 36.6462 65.3363 35.6862 66.8701 35.0321V10.4115C66.8701 7.91544 65.8787 5.52158 64.114 3.75657C62.3493 1.99157 59.9558 1 57.4601 1H10.41ZM33.9351 33.9404C34.559 33.9404 35.1574 34.1883 35.5985 34.6295C36.0397 35.0708 36.2876 35.6692 36.2876 36.2933V50.4106C36.2876 51.0346 36.0397 51.633 35.5985 52.0743C35.1574 52.5156 34.559 52.7634 33.9351 52.7634C33.3111 52.7634 32.7128 52.5156 32.2716 52.0743C31.8304 51.633 31.5826 51.0346 31.5826 50.4106V36.2933C31.5826 35.6692 31.8304 35.0708 32.2716 34.6295C32.7128 34.1883 33.3111 33.9404 33.9351 33.9404ZM15.115 26.8817C15.115 26.2577 15.3629 25.6592 15.8041 25.218C16.2452 24.7767 16.8436 24.5288 17.4675 24.5288C18.0915 24.5288 18.6898 24.7767 19.131 25.218C19.5722 25.6592 19.82 26.2577 19.82 26.8817V50.4106C19.82 51.0346 19.5722 51.633 19.131 52.0743C18.6898 52.5156 18.0915 52.7634 17.4675 52.7634C16.8436 52.7634 16.2452 52.5156 15.8041 52.0743C15.3629 51.633 15.115 51.0346 15.115 50.4106V26.8817ZM43.251 63.9491L65.9762 41.2202C67.6271 39.5697 69.866 38.6426 72.2002 38.6431C74.5345 38.6435 76.773 39.5714 78.4233 41.2225C80.0736 42.8737 81.0004 45.1129 81 47.4476C80.9996 49.7823 80.0718 52.0211 78.4209 53.6717L55.6957 76.3958C54.3719 77.7205 52.7131 78.6606 50.8966 79.1157L43.8485 80.8757C43.1477 81.0504 42.4136 81.0408 41.7176 80.8479C41.0216 80.6549 40.3873 80.2852 39.8763 79.7747C39.3654 79.2641 38.9952 78.6301 38.8016 77.9341C38.6081 77.2382 38.5978 76.504 38.7718 75.8029L40.5362 68.7536C40.9875 66.9353 41.928 65.2753 43.2557 63.9538L43.251 63.9491Z" fill="#40A3C0"/>
</svg>
