<svg width="16" height="12" viewBox="0 0 16 12" fill="none" xmlns="http://www.w3.org/2000/svg">
<path d="M15.5136 4.15282C15.548 3.15711 15.3302 2.16884 14.8806 1.27978C14.5754 0.914981 14.152 0.668799 13.684 0.584131C11.7484 0.408497 9.80472 0.33651 7.86142 0.368479C5.92518 0.335059 3.98853 0.404722 2.0597 0.577175C1.67835 0.646543 1.32544 0.825416 1.04404 1.09196C0.417953 1.66935 0.348388 2.65717 0.278823 3.49196C0.177892 4.99287 0.177892 6.49887 0.278823 7.99979C0.298948 8.46964 0.368906 8.936 0.487519 9.3911C0.571397 9.7424 0.7411 10.0675 0.981435 10.3372C1.26475 10.6178 1.62587 10.8069 2.01796 10.8798C3.51772 11.0649 5.02889 11.1416 6.5397 11.1094C8.97446 11.1441 11.1101 11.1094 13.6353 10.9146C14.0371 10.8461 14.4083 10.6568 14.6997 10.372C14.8945 10.1771 15.0399 9.93865 15.124 9.67632C15.3728 8.91291 15.495 8.11395 15.4858 7.3111C15.5136 6.92152 15.5136 4.57022 15.5136 4.15282ZM6.28926 7.72849V3.42239L10.4075 5.58587C9.25273 6.22587 7.72925 6.94935 6.28926 7.72849Z" fill="white"/>
</svg>
